Coordinates
version=1
nRows=6
nColumns=63
inDegrees=yes

Units are S.I. units (second, meters, Newtons, ...)
If the header above contains a line with 'inDegrees', this indicates whether rotational values are in degrees (yes) or radians (no).

endheader
time	pelvis_tilt	pelvis_list	pelvis_rotation	pelvis_tx	pelvis_ty	pelvis_tz	hip_flexion_r	hip_adduction_r	hip_rotation_r	knee_angle_r	knee_angle_r_beta	ankle_angle_r	subtalar_angle_r	mtp_angle_r	hip_flexion_l	hip_adduction_l	hip_rotation_l	knee_angle_l	knee_angle_l_beta	ankle_angle_l	subtalar_angle_l	mtp_angle_l	L5_S1_Flex_Ext	L5_S1_Lat_Bending	L5_S1_axial_rotation	L4_L5_Flex_Ext	L4_L5_Lat_Bending	L4_L5_axial_rotation	L3_L4_Flex_Ext	L3_L4_Lat_Bending	L3_L4_axial_rotation	L2_L3_Flex_Ext	L2_L3_Lat_Bending	L2_L3_axial_rotation	L1_L2_Flex_Ext	L1_L2_Lat_Bending	L1_L2_axial_rotation	L1_T12_Flex_Ext	L1_T12_Lat_Bending	L1_T12_axial_rotation	Abs_r3	Abs_r2	Abs_r1	Abs_t1	Abs_t2	neck_flexion	neck_bending	neck_rotation	arm_flex_r	arm_add_r	arm_rot_r	elbow_flex_r	pro_sup_r	wrist_flex_r	wrist_dev_r	arm_flex_l	arm_add_l	arm_rot_l	elbow_flex_l	pro_sup_l	wrist_flex_l	wrist_dev_l
      0.00000000	      2.78376128	     -4.20095803	     91.96461072	      0.20364221	      1.04978860	      0.54048531	      9.49174015	      0.10157424	    -11.16454040	     13.47921311	      0.23525665	     30.16784272	     18.18470202	      0.00000000	      7.33727044	     -3.11771537	     -0.69267196	      4.81754843	      0.08408208	     27.05191718	      2.92415102	      0.00000000	      0.11763402	      0.66812221	      1.09179542	      0.21845815	      0.88860254	      1.16003264	      0.19326094	      1.62447234	      1.16003264	      0.13444393	      1.62447234	      0.95532099	      0.10923496	      1.36243481	      0.88708378	      0.06721608	      1.03492130	      0.81884657	      0.84024807	      7.55793206	      6.07223860	      0.00000000	      0.00000000	     27.32308382	     -4.20294624	      7.74772130	      5.15698416	    -18.48355929	     12.57595453	     26.60664108	     79.04607391	     -8.81565002	     10.10810379	     15.71132547	     -7.15977853	     75.20528622	      7.71448235	     46.18357301	     -1.45263317	     -6.01858020
      0.02083333	      3.48345995	     -3.20250099	     93.05644994	      0.20124795	      1.05176125	      0.53320337	      7.14151326	      0.92372574	    -11.66682609	     11.49066674	      0.20054997	     29.97352982	     17.83244950	      0.00000000	      4.84884502	     -3.51520074	      8.40958820	      2.13505557	      0.03726375	     25.12876975	     -7.16511548	      0.00000000	      0.09761605	      0.76313573	      0.75358540	      0.18128277	      1.01497052	      0.80068449	      0.16037341	      1.85548822	      0.80068449	      0.11156539	      1.85548822	      0.65938723	      0.09064627	      1.55618638	      0.61228814	      0.05577781	      1.18209725	      0.56518905	      0.69726170	      8.63274401	      4.19121594	      0.00000000	      0.00000000	     26.85403680	     -4.20992579	      8.30546164	      5.39725954	    -18.74572058	     15.09270377	     25.58109382	     79.83287594	     -8.69728711	      9.61959797	     15.26618333	     -7.05841561	     81.11352410	      7.45546556	     46.30252271	     -2.42338105	     -5.24036642
      0.04166667	      3.98359072	     -2.43669185	     94.26462123	      0.19912214	      1.05312577	      0.52812393	      5.36447798	      1.54501069	    -12.23942680	     10.04066470	      0.17524266	     29.65505527	     17.38641877	      0.00000000	      3.61307058	     -4.02271854	      9.82048624	      1.32074801	      0.02305140	     25.60873981	     -6.91504236	      0.00000000	      0.08031691	      0.82887343	      0.45965653	      0.14915654	      1.10240167	      0.48838507	      0.13195266	      2.01532287	      0.48838507	      0.09179420	      2.01532287	      0.40219947	      0.07458229	      1.69023871	      0.37347093	      0.04589308	      1.28392495	      0.34474240	      0.57369569	      9.37638207	      2.55647173	      0.00000000	      0.00000000	     26.44533376	     -4.18470135	      8.65902131	      5.35242982	    -18.82362845	     15.99258671	     24.97853057	     80.29467061	     -8.55170780	      9.70978882	     14.93139313	     -6.95700012	     83.79501123	      7.27478740	     48.35202614	     -2.98861380	     -4.77063573
      0.06250000	      4.25160565	     -1.87762524	     95.14795373	      0.19778513	      1.05411959	      0.52427787	      4.05501134	      1.95267560	    -12.55690012	      9.03675590	      0.15772114	     29.31209082	     16.82968762	      0.00000000	      2.82693602	     -4.33394286	      9.42057536	      1.02782999	      0.01793902	     26.32390418	     -4.94507079	      0.00000000	      0.07192634	      0.86336029	      0.24361963	      0.13357440	      1.14826919	      0.25884586	      0.11816778	      2.09917421	      0.25884586	      0.08220461	      2.09917421	      0.21316718	      0.06679079	      1.76056430	      0.19794095	      0.04109871	      1.33734509	      0.18271472	      0.51376262	      9.76650427	      1.35493931	      0.00000000	      0.00000000	     26.08976989	     -4.23674751	      8.87369610	      5.30629725	    -18.97766258	     17.65502119	     24.52768561	     79.22823822	     -8.74150821	      9.79893641	     14.60384040	     -6.96520592	     85.99315085	      7.07650294	     49.58293345	     -3.37520920	     -4.93359709
      0.08333333	      4.53502896	     -1.40057130	     95.98440162	      0.19645679	      1.05481848	      0.52144451	      3.00942145	      2.33717050	    -13.22880014	      8.33937705	      0.14554959	     28.92647501	     16.73316843	      0.00000000	      2.17354677	     -4.62552747	     12.85984730	      0.76923422	      0.01342567	     25.72105971	     -8.75171997	      0.00000000	      0.06078753	      0.90201762	      0.08301290	      0.11288851	      1.19968344	      0.08820120	      0.09986783	      2.19316565	      0.08820120	      0.06947406	      2.19316565	      0.07263628	      0.05644730	      1.83939434	      0.06744798	      0.03473399	      1.39722530	      0.06225967	      0.43419922	     10.20380376	      0.46169282	      0.00000000	      0.00000000	     25.80546211	     -4.29077179	      8.98722616	      4.83427677	    -19.01947659	     17.07047918	     24.66579135	     79.04765852	     -8.70639203	     10.32361214	     14.41625532	     -7.01637215	     89.52530939	      7.25957961	     46.44979599	     -3.92400422	     -4.99364531
      0.10416667	      4.62572120	     -1.06392197	     96.43027721	      0.19584654	      1.05533182	      0.51947468	      2.30342503	      2.53682104	    -13.10552491	      7.96897109	      0.13908478	     28.58592854	     16.07213958	      0.00000000	      1.70157483	     -4.76313721	     13.37004718	      0.66571380	      0.01161890	     25.76534276	     -8.93104771	      0.00000000	      0.05109442	      0.91481311	      0.01766619	      0.09488744	      1.21670143	      0.01877032	      0.08394302	      2.22427659	      0.01877032	      0.05839581	      2.22427659	      0.01545791	      0.04744627	      1.86548689	      0.01435378	      0.02919535	      1.41704550	      0.01324964	      0.36496230	     10.34854884	      0.09825403	      0.00000000	      0.00000000	     25.56099866	     -4.40936460	      8.97279070	      4.32934568	    -19.02927410	     16.41421901	     24.96699610	     79.03773807	     -8.74329166	     10.61662963	     14.24737890	     -7.09953351	     90.51102104	      7.38699579	     45.55445572	     -3.97051481	     -5.30301815
